<svg width="958" height="966" viewBox="0 0 958 966" fill="none" xmlns="http://www.w3.org/2000/svg">
<mask id="path-1-inside-1_9_6665" fill="white">
<path d="M958 486.063C958 423.16 945.61 360.873 921.538 302.758C897.466 244.643 862.183 191.838 817.704 147.359C773.225 102.88 720.42 67.5969 662.305 43.5249C604.19 19.4529 541.903 7.06323 479 7.06323C416.097 7.06324 353.81 19.4529 295.695 43.5249C237.58 67.597 184.775 102.88 140.296 147.359C95.8166 191.838 60.5337 244.643 36.4617 302.758C12.3897 360.873 -5.49917e-06 423.16 0 486.063L479 486.063H958Z"/>
</mask>
<path d="M958 486.063C958 423.16 945.61 360.873 921.538 302.758C897.466 244.643 862.183 191.838 817.704 147.359C773.225 102.88 720.42 67.5969 662.305 43.5249C604.19 19.4529 541.903 7.06323 479 7.06323C416.097 7.06324 353.81 19.4529 295.695 43.5249C237.58 67.597 184.775 102.88 140.296 147.359C95.8166 191.838 60.5337 244.643 36.4617 302.758C12.3897 360.873 -5.49917e-06 423.16 0 486.063L479 486.063H958Z" fill="#A7D7FD" stroke="black" stroke-width="14.1263" mask="url(#path-1-inside-1_9_6665)"/>
<mask id="path-2-inside-2_9_6665" fill="white">
<path d="M0 479C-5.49917e-06 541.903 12.3897 604.19 36.4617 662.305C60.5337 720.42 95.8166 773.225 140.296 817.704C184.775 862.183 237.58 897.466 295.695 921.538C353.81 945.61 416.097 958 479 958C541.903 958 604.19 945.61 662.305 921.538C720.42 897.466 773.225 862.183 817.704 817.704C862.184 773.225 897.466 720.42 921.538 662.305C945.61 604.19 958 541.903 958 479L479 479L0 479Z"/>
</mask>
<path d="M0 479C-5.49917e-06 541.903 12.3897 604.19 36.4617 662.305C60.5337 720.42 95.8166 773.225 140.296 817.704C184.775 862.183 237.58 897.466 295.695 921.538C353.81 945.61 416.097 958 479 958C541.903 958 604.19 945.61 662.305 921.538C720.42 897.466 773.225 862.183 817.704 817.704C862.184 773.225 897.466 720.42 921.538 662.305C945.61 604.19 958 541.903 958 479L479 479L0 479Z" fill="#A2FDBA" stroke="black" stroke-width="14.1263" mask="url(#path-2-inside-2_9_6665)"/>
<g filter="url(#filter0_d_9_6665)">
<circle cx="479" cy="486.063" r="330.203" fill="#FFA09C"/>
<circle cx="479" cy="486.063" r="326.671" stroke="black" stroke-width="7.06316"/>
</g>
<g filter="url(#filter1_d_9_6665)">
<circle cx="479" cy="486.063" r="184.702" fill="#FCFDB9"/>
<circle cx="479" cy="486.063" r="181.17" stroke="black" stroke-width="7.06316"/>
</g>
<path d="M421.411 499.637H415.216L415.255 495.064H421.411C422.949 495.064 424.245 494.719 425.3 494.028C426.356 493.325 427.15 492.302 427.685 490.96C428.232 489.618 428.505 487.996 428.505 486.094V484.706C428.505 483.247 428.349 481.964 428.036 480.856C427.737 479.749 427.287 478.817 426.688 478.061C426.089 477.306 425.352 476.739 424.48 476.361C423.607 475.97 422.603 475.775 421.47 475.775H415.099V471.182H421.47C423.372 471.182 425.111 471.508 426.688 472.159C428.277 472.798 429.652 473.716 430.812 474.915C431.971 476.114 432.864 477.547 433.489 479.215C434.127 480.869 434.447 482.713 434.447 484.745V486.094C434.447 488.113 434.127 489.957 433.489 491.624C432.864 493.292 431.971 494.725 430.812 495.924C429.665 497.11 428.29 498.028 426.688 498.68C425.098 499.318 423.339 499.637 421.411 499.637ZM418.538 471.182V499.637H412.675V471.182H418.538ZM437.456 489.279V488.869C437.456 487.318 437.678 485.892 438.121 484.589C438.564 483.273 439.209 482.133 440.055 481.169C440.902 480.205 441.945 479.456 443.182 478.921C444.42 478.374 445.84 478.101 447.443 478.101C449.045 478.101 450.472 478.374 451.723 478.921C452.974 479.456 454.022 480.205 454.869 481.169C455.729 482.133 456.381 483.273 456.824 484.589C457.267 485.892 457.488 487.318 457.488 488.869V489.279C457.488 490.817 457.267 492.243 456.824 493.559C456.381 494.862 455.729 496.002 454.869 496.979C454.022 497.943 452.98 498.693 451.742 499.227C450.505 499.761 449.084 500.028 447.482 500.028C445.879 500.028 444.453 499.761 443.202 499.227C441.964 498.693 440.915 497.943 440.055 496.979C439.209 496.002 438.564 494.862 438.121 493.559C437.678 492.243 437.456 490.817 437.456 489.279ZM443.085 488.869V489.279C443.085 490.165 443.163 490.993 443.319 491.761C443.476 492.53 443.723 493.207 444.062 493.794C444.414 494.367 444.87 494.817 445.43 495.142C445.99 495.468 446.674 495.631 447.482 495.631C448.264 495.631 448.935 495.468 449.495 495.142C450.055 494.817 450.505 494.367 450.843 493.794C451.182 493.207 451.43 492.53 451.586 491.761C451.755 490.993 451.84 490.165 451.84 489.279V488.869C451.84 488.009 451.755 487.201 451.586 486.446C451.43 485.677 451.176 484.999 450.824 484.413C450.485 483.814 450.036 483.345 449.475 483.006C448.915 482.667 448.238 482.498 447.443 482.498C446.648 482.498 445.971 482.667 445.41 483.006C444.863 483.345 444.414 483.814 444.062 484.413C443.723 484.999 443.476 485.677 443.319 486.446C443.163 487.201 443.085 488.009 443.085 488.869ZM466.576 482.869V499.637H460.928V478.491H466.224L466.576 482.869ZM465.794 488.322H464.23C464.23 486.849 464.406 485.494 464.758 484.257C465.123 483.006 465.651 481.925 466.341 481.012C467.045 480.087 467.911 479.371 468.94 478.863C469.97 478.355 471.162 478.101 472.517 478.101C473.455 478.101 474.315 478.244 475.097 478.53C475.878 478.804 476.549 479.241 477.109 479.84C477.683 480.426 478.126 481.195 478.438 482.146C478.751 483.084 478.907 484.211 478.907 485.527V499.637H473.279V486.152C473.279 485.188 473.149 484.446 472.888 483.924C472.628 483.403 472.256 483.038 471.774 482.83C471.305 482.622 470.738 482.517 470.074 482.517C469.344 482.517 468.706 482.667 468.159 482.967C467.624 483.266 467.182 483.683 466.83 484.218C466.478 484.739 466.217 485.351 466.048 486.055C465.879 486.758 465.794 487.514 465.794 488.322ZM478.38 487.677L476.367 487.931C476.367 486.55 476.536 485.266 476.875 484.081C477.227 482.895 477.741 481.853 478.419 480.954C479.109 480.055 479.963 479.358 480.979 478.863C481.995 478.355 483.168 478.101 484.497 478.101C485.513 478.101 486.438 478.25 487.272 478.55C488.106 478.837 488.816 479.299 489.402 479.938C490.002 480.563 490.458 481.384 490.77 482.4C491.096 483.416 491.259 484.661 491.259 486.133V499.637H485.611V486.133C485.611 485.156 485.481 484.413 485.22 483.905C484.972 483.384 484.608 483.025 484.126 482.83C483.656 482.622 483.096 482.517 482.445 482.517C481.767 482.517 481.174 482.654 480.666 482.928C480.158 483.188 479.735 483.553 479.396 484.022C479.057 484.491 478.803 485.038 478.634 485.664C478.464 486.276 478.38 486.947 478.38 487.677ZM507.03 494.869V485.449C507.03 484.771 506.919 484.192 506.698 483.709C506.476 483.214 506.131 482.83 505.662 482.556C505.206 482.283 504.613 482.146 503.884 482.146C503.258 482.146 502.718 482.257 502.262 482.478C501.806 482.687 501.454 482.993 501.206 483.397C500.959 483.788 500.835 484.25 500.835 484.784H495.207C495.207 483.885 495.415 483.032 495.832 482.224C496.249 481.416 496.855 480.706 497.649 480.094C498.444 479.469 499.389 478.98 500.483 478.628C501.591 478.276 502.828 478.101 504.196 478.101C505.838 478.101 507.297 478.374 508.574 478.921C509.851 479.469 510.854 480.289 511.584 481.384C512.326 482.478 512.698 483.846 512.698 485.488V494.536C512.698 495.696 512.769 496.647 512.913 497.39C513.056 498.119 513.265 498.758 513.538 499.305V499.637H507.851C507.577 499.064 507.369 498.347 507.226 497.487C507.095 496.615 507.03 495.742 507.03 494.869ZM507.773 486.758L507.812 489.944H504.665C503.923 489.944 503.278 490.028 502.731 490.198C502.183 490.367 501.734 490.608 501.382 490.921C501.03 491.221 500.77 491.572 500.6 491.976C500.444 492.38 500.366 492.823 500.366 493.305C500.366 493.787 500.477 494.224 500.698 494.615C500.92 494.992 501.239 495.292 501.656 495.514C502.073 495.722 502.561 495.826 503.122 495.826C503.968 495.826 504.705 495.657 505.33 495.318C505.955 494.979 506.437 494.562 506.776 494.067C507.128 493.572 507.31 493.103 507.323 492.66L508.809 495.045C508.6 495.579 508.314 496.132 507.949 496.706C507.597 497.279 507.147 497.82 506.6 498.328C506.053 498.823 505.395 499.233 504.626 499.559C503.858 499.872 502.946 500.028 501.89 500.028C500.548 500.028 499.33 499.761 498.236 499.227C497.154 498.68 496.294 497.93 495.656 496.979C495.031 496.015 494.718 494.921 494.718 493.696C494.718 492.589 494.926 491.605 495.343 490.745C495.76 489.885 496.373 489.162 497.18 488.576C498.001 487.976 499.024 487.527 500.249 487.227C501.473 486.915 502.894 486.758 504.509 486.758H507.773ZM522.977 478.491V499.637H517.329V478.491H522.977ZM516.978 472.98C516.978 472.159 517.264 471.482 517.838 470.948C518.411 470.414 519.18 470.146 520.144 470.146C521.095 470.146 521.857 470.414 522.43 470.948C523.017 471.482 523.31 472.159 523.31 472.98C523.31 473.801 523.017 474.479 522.43 475.013C521.857 475.547 521.095 475.814 520.144 475.814C519.18 475.814 518.411 475.547 517.838 475.013C517.264 474.479 516.978 473.801 516.978 472.98ZM533.14 483.006V499.637H527.512V478.491H532.788L533.14 483.006ZM532.319 488.322H530.795C530.795 486.758 530.997 485.351 531.401 484.1C531.805 482.837 532.371 481.762 533.101 480.876C533.831 479.977 534.697 479.293 535.7 478.824C536.716 478.342 537.85 478.101 539.101 478.101C540.091 478.101 540.996 478.244 541.817 478.53C542.638 478.817 543.342 479.273 543.928 479.899C544.527 480.524 544.983 481.351 545.296 482.381C545.622 483.41 545.784 484.667 545.784 486.152V499.637H540.117V486.133C540.117 485.195 539.987 484.465 539.726 483.944C539.465 483.423 539.081 483.058 538.573 482.85C538.078 482.628 537.466 482.517 536.736 482.517C535.98 482.517 535.322 482.667 534.762 482.967C534.215 483.266 533.759 483.683 533.394 484.218C533.042 484.739 532.775 485.351 532.593 486.055C532.41 486.758 532.319 487.514 532.319 488.322Z" fill="black"/>
<path d="M391.047 229.544L383.308 253.133H377.074L387.647 224.678H391.614L391.047 229.544ZM397.477 253.133L389.718 229.544L389.093 224.678H393.099L403.731 253.133H397.477ZM397.125 242.54V247.133H382.096V242.54H397.125ZM411.02 236.052V261.263H405.392V231.987H410.61L411.02 236.052ZM424.408 242.325V242.736C424.408 244.273 424.225 245.7 423.86 247.016C423.509 248.332 422.987 249.478 422.297 250.455C421.606 251.42 420.746 252.175 419.717 252.722C418.701 253.257 417.528 253.524 416.199 253.524C414.91 253.524 413.789 253.263 412.838 252.742C411.887 252.221 411.086 251.491 410.434 250.553C409.796 249.602 409.281 248.501 408.89 247.25C408.499 246 408.2 244.658 407.991 243.224V242.15C408.2 240.612 408.499 239.205 408.89 237.928C409.281 236.638 409.796 235.524 410.434 234.586C411.086 233.635 411.88 232.899 412.818 232.378C413.77 231.857 414.883 231.596 416.16 231.596C417.502 231.596 418.681 231.85 419.698 232.358C420.727 232.866 421.587 233.596 422.277 234.547C422.981 235.498 423.509 236.632 423.86 237.948C424.225 239.264 424.408 240.723 424.408 242.325ZM418.76 242.736V242.325C418.76 241.426 418.681 240.599 418.525 239.843C418.382 239.075 418.147 238.404 417.821 237.83C417.509 237.257 417.092 236.814 416.571 236.502C416.063 236.176 415.444 236.013 414.714 236.013C413.945 236.013 413.287 236.137 412.74 236.384C412.206 236.632 411.77 236.99 411.431 237.459C411.092 237.928 410.838 238.488 410.669 239.14C410.499 239.791 410.395 240.527 410.356 241.348V244.065C410.421 245.029 410.604 245.895 410.903 246.664C411.203 247.42 411.665 248.019 412.291 248.462C412.916 248.905 413.737 249.126 414.753 249.126C415.496 249.126 416.121 248.964 416.629 248.638C417.137 248.299 417.548 247.837 417.861 247.25C418.186 246.664 418.414 245.986 418.545 245.218C418.688 244.449 418.76 243.622 418.76 242.736ZM433.534 236.052V261.263H427.906V231.987H433.124L433.534 236.052ZM446.921 242.325V242.736C446.921 244.273 446.739 245.7 446.374 247.016C446.022 248.332 445.501 249.478 444.811 250.455C444.12 251.42 443.26 252.175 442.231 252.722C441.215 253.257 440.042 253.524 438.713 253.524C437.423 253.524 436.303 253.263 435.352 252.742C434.401 252.221 433.599 251.491 432.948 250.553C432.31 249.602 431.795 248.501 431.404 247.25C431.013 246 430.714 244.658 430.505 243.224V242.15C430.714 240.612 431.013 239.205 431.404 237.928C431.795 236.638 432.31 235.524 432.948 234.586C433.599 233.635 434.394 232.899 435.332 232.378C436.283 231.857 437.397 231.596 438.674 231.596C440.016 231.596 441.195 231.85 442.211 232.358C443.241 232.866 444.101 233.596 444.791 234.547C445.495 235.498 446.022 236.632 446.374 237.948C446.739 239.264 446.921 240.723 446.921 242.325ZM441.273 242.736V242.325C441.273 241.426 441.195 240.599 441.039 239.843C440.896 239.075 440.661 238.404 440.335 237.83C440.023 237.257 439.606 236.814 439.085 236.502C438.576 236.176 437.958 236.013 437.228 236.013C436.459 236.013 435.801 236.137 435.254 236.384C434.72 236.632 434.283 236.99 433.945 237.459C433.606 237.928 433.352 238.488 433.182 239.14C433.013 239.791 432.909 240.527 432.87 241.348V244.065C432.935 245.029 433.117 245.895 433.417 246.664C433.717 247.42 434.179 248.019 434.805 248.462C435.43 248.905 436.251 249.126 437.267 249.126C438.01 249.126 438.635 248.964 439.143 248.638C439.651 248.299 440.062 247.837 440.374 247.25C440.7 246.664 440.928 245.986 441.058 245.218C441.202 244.449 441.273 243.622 441.273 242.736ZM456.361 223.114V253.133H450.713V223.114H456.361ZM466.953 231.987V253.133H461.305V231.987H466.953ZM460.953 226.476C460.953 225.655 461.24 224.978 461.813 224.443C462.387 223.909 463.155 223.642 464.119 223.642C465.071 223.642 465.833 223.909 466.406 224.443C466.992 224.978 467.285 225.655 467.285 226.476C467.285 227.297 466.992 227.974 466.406 228.508C465.833 229.042 465.071 229.31 464.119 229.31C463.155 229.31 462.387 229.042 461.813 228.508C461.24 227.974 460.953 227.297 460.953 226.476ZM480.34 249.126C481.031 249.126 481.643 248.996 482.177 248.736C482.712 248.462 483.129 248.084 483.428 247.602C483.741 247.107 483.904 246.527 483.917 245.863H489.213C489.2 247.348 488.803 248.67 488.021 249.83C487.239 250.977 486.19 251.882 484.874 252.547C483.558 253.198 482.086 253.524 480.458 253.524C478.816 253.524 477.383 253.25 476.158 252.703C474.946 252.156 473.937 251.4 473.129 250.436C472.321 249.459 471.715 248.325 471.311 247.035C470.907 245.732 470.706 244.338 470.706 242.853V242.286C470.706 240.788 470.907 239.394 471.311 238.104C471.715 236.801 472.321 235.668 473.129 234.704C473.937 233.726 474.946 232.964 476.158 232.417C477.37 231.87 478.79 231.596 480.419 231.596C482.151 231.596 483.669 231.928 484.972 232.593C486.288 233.257 487.317 234.208 488.06 235.446C488.816 236.671 489.2 238.124 489.213 239.804H483.917C483.904 239.101 483.754 238.462 483.467 237.889C483.194 237.316 482.79 236.86 482.256 236.521C481.734 236.169 481.09 235.993 480.321 235.993C479.5 235.993 478.829 236.169 478.308 236.521C477.787 236.86 477.383 237.329 477.096 237.928C476.81 238.514 476.608 239.185 476.49 239.941C476.386 240.684 476.334 241.465 476.334 242.286V242.853C476.334 243.674 476.386 244.462 476.49 245.218C476.595 245.973 476.79 246.644 477.077 247.231C477.376 247.817 477.787 248.28 478.308 248.618C478.829 248.957 479.507 249.126 480.34 249.126ZM503.89 248.364V238.944C503.89 238.267 503.779 237.687 503.558 237.205C503.336 236.71 502.991 236.326 502.522 236.052C502.066 235.778 501.473 235.642 500.744 235.642C500.118 235.642 499.577 235.752 499.121 235.974C498.665 236.182 498.314 236.488 498.066 236.892C497.819 237.283 497.695 237.746 497.695 238.28H492.066C492.066 237.381 492.275 236.528 492.692 235.72C493.109 234.912 493.714 234.202 494.509 233.59C495.304 232.964 496.249 232.476 497.343 232.124C498.45 231.772 499.688 231.596 501.056 231.596C502.698 231.596 504.157 231.87 505.434 232.417C506.711 232.964 507.714 233.785 508.444 234.879C509.186 235.974 509.558 237.342 509.558 238.983V248.032C509.558 249.192 509.629 250.143 509.772 250.885C509.916 251.615 510.124 252.253 510.398 252.801V253.133H504.711C504.437 252.56 504.229 251.843 504.085 250.983C503.955 250.11 503.89 249.237 503.89 248.364ZM504.633 240.254L504.672 243.439H501.525C500.783 243.439 500.138 243.524 499.59 243.693C499.043 243.863 498.594 244.104 498.242 244.417C497.89 244.716 497.63 245.068 497.46 245.472C497.304 245.876 497.226 246.319 497.226 246.801C497.226 247.283 497.336 247.719 497.558 248.11C497.779 248.488 498.099 248.788 498.516 249.009C498.932 249.218 499.421 249.322 499.981 249.322C500.828 249.322 501.564 249.153 502.19 248.814C502.815 248.475 503.297 248.058 503.636 247.563C503.988 247.068 504.17 246.599 504.183 246.156L505.668 248.54C505.46 249.074 505.173 249.628 504.809 250.201C504.457 250.775 504.007 251.315 503.46 251.823C502.913 252.319 502.255 252.729 501.486 253.055C500.717 253.367 499.805 253.524 498.75 253.524C497.408 253.524 496.19 253.257 495.096 252.722C494.014 252.175 493.154 251.426 492.516 250.475C491.89 249.511 491.578 248.416 491.578 247.192C491.578 246.084 491.786 245.101 492.203 244.241C492.62 243.381 493.232 242.658 494.04 242.071C494.861 241.472 495.884 241.023 497.108 240.723C498.333 240.41 499.753 240.254 501.369 240.254H504.633ZM524.254 231.987V235.974H511.942V231.987H524.254ZM514.991 226.769H520.619V246.762C520.619 247.374 520.697 247.843 520.854 248.169C521.023 248.495 521.27 248.723 521.596 248.853C521.922 248.97 522.332 249.029 522.827 249.029C523.179 249.029 523.492 249.016 523.765 248.99C524.052 248.951 524.293 248.911 524.489 248.872L524.508 253.016C524.026 253.172 523.505 253.296 522.945 253.387C522.384 253.478 521.766 253.524 521.088 253.524C519.85 253.524 518.769 253.322 517.844 252.918C516.932 252.501 516.228 251.836 515.733 250.924C515.238 250.012 514.991 248.814 514.991 247.328V226.769ZM533.4 231.987V253.133H527.752V231.987H533.4ZM527.4 226.476C527.4 225.655 527.687 224.978 528.26 224.443C528.834 223.909 529.602 223.642 530.566 223.642C531.518 223.642 532.28 223.909 532.853 224.443C533.439 224.978 533.733 225.655 533.733 226.476C533.733 227.297 533.439 227.974 532.853 228.508C532.28 229.042 531.518 229.31 530.566 229.31C529.602 229.31 528.834 229.042 528.26 228.508C527.687 227.974 527.4 227.297 527.4 226.476ZM537.153 242.775V242.364C537.153 240.814 537.374 239.387 537.817 238.085C538.26 236.769 538.905 235.629 539.752 234.664C540.599 233.7 541.641 232.951 542.879 232.417C544.116 231.87 545.537 231.596 547.139 231.596C548.742 231.596 550.168 231.87 551.419 232.417C552.67 232.951 553.719 233.7 554.566 234.664C555.426 235.629 556.077 236.769 556.52 238.085C556.963 239.387 557.184 240.814 557.184 242.364V242.775C557.184 244.312 556.963 245.739 556.52 247.055C556.077 248.358 555.426 249.498 554.566 250.475C553.719 251.439 552.676 252.188 551.439 252.722C550.201 253.257 548.781 253.524 547.178 253.524C545.576 253.524 544.149 253.257 542.898 252.722C541.661 252.188 540.612 251.439 539.752 250.475C538.905 249.498 538.26 248.358 537.817 247.055C537.374 245.739 537.153 244.312 537.153 242.775ZM542.781 242.364V242.775C542.781 243.661 542.859 244.488 543.016 245.257C543.172 246.026 543.419 246.703 543.758 247.289C544.11 247.863 544.566 248.312 545.126 248.638C545.686 248.964 546.37 249.126 547.178 249.126C547.96 249.126 548.631 248.964 549.191 248.638C549.751 248.312 550.201 247.863 550.54 247.289C550.878 246.703 551.126 246.026 551.282 245.257C551.452 244.488 551.536 243.661 551.536 242.775V242.364C551.536 241.505 551.452 240.697 551.282 239.941C551.126 239.172 550.872 238.495 550.52 237.909C550.181 237.309 549.732 236.84 549.172 236.502C548.611 236.163 547.934 235.993 547.139 235.993C546.344 235.993 545.667 236.163 545.107 236.502C544.559 236.84 544.11 237.309 543.758 237.909C543.419 238.495 543.172 239.172 543.016 239.941C542.859 240.697 542.781 241.505 542.781 242.364ZM566.155 236.502V253.133H560.526V231.987H565.803L566.155 236.502ZM565.334 241.817H563.81C563.81 240.254 564.012 238.847 564.415 237.596C564.819 236.332 565.386 235.257 566.116 234.371C566.845 233.472 567.712 232.788 568.715 232.319C569.731 231.837 570.865 231.596 572.115 231.596C573.106 231.596 574.011 231.739 574.832 232.026C575.653 232.313 576.356 232.769 576.943 233.394C577.542 234.02 577.998 234.847 578.311 235.876C578.636 236.905 578.799 238.163 578.799 239.648V253.133H573.132V239.628C573.132 238.69 573.001 237.961 572.741 237.44C572.48 236.918 572.096 236.554 571.588 236.345C571.093 236.124 570.48 236.013 569.751 236.013C568.995 236.013 568.337 236.163 567.777 236.462C567.23 236.762 566.774 237.179 566.409 237.713C566.057 238.234 565.79 238.847 565.608 239.55C565.425 240.254 565.334 241.009 565.334 241.817Z" fill="black"/>
<path d="M377.375 91.8378H370.124V87.2646H377.375C378.495 87.2646 379.407 87.0822 380.111 86.7174C380.814 86.3396 381.329 85.8184 381.655 85.154C381.98 84.4895 382.143 83.7403 382.143 82.9065C382.143 82.0596 381.98 81.2714 381.655 80.5418C381.329 79.8122 380.814 79.2259 380.111 78.7829C379.407 78.3399 378.495 78.1184 377.375 78.1184H372.157V101.981H366.294V73.5257H377.375C379.603 73.5257 381.511 73.9296 383.101 74.7374C384.703 75.5322 385.928 76.6331 386.775 78.0402C387.622 79.4473 388.045 81.0564 388.045 82.8674C388.045 84.7045 387.622 86.294 386.775 87.636C385.928 88.9779 384.703 90.0137 383.101 90.7433C381.511 91.473 379.603 91.8378 377.375 91.8378ZM397.367 85.4471V101.981H391.739V80.8349H397.035L397.367 85.4471ZM403.738 80.6981L403.641 85.9162C403.367 85.8771 403.035 85.8445 402.644 85.8184C402.266 85.7794 401.921 85.7598 401.608 85.7598C400.813 85.7598 400.123 85.864 399.537 86.0725C398.963 86.2679 398.481 86.5611 398.09 86.952C397.713 87.3428 397.426 87.8184 397.231 88.3786C397.048 88.9389 396.944 89.5773 396.918 90.2938L395.784 89.9421C395.784 88.574 395.921 87.3168 396.195 86.1702C396.468 85.0107 396.866 84.0009 397.387 83.141C397.921 82.2811 398.572 81.6166 399.341 81.1476C400.11 80.6786 400.989 80.4441 401.98 80.4441C402.292 80.4441 402.611 80.4701 402.937 80.5222C403.263 80.5613 403.53 80.6199 403.738 80.6981ZM415.738 102.372C414.096 102.372 412.624 102.111 411.321 101.59C410.018 101.056 408.911 100.32 407.999 99.3815C407.1 98.4434 406.409 97.3555 405.927 96.1177C405.445 94.867 405.204 93.538 405.204 92.1309V91.3492C405.204 89.7466 405.432 88.2809 405.888 86.952C406.344 85.623 406.996 84.47 407.843 83.4928C408.702 82.5156 409.745 81.7665 410.969 81.2453C412.194 80.7111 413.575 80.4441 415.113 80.4441C416.611 80.4441 417.94 80.6916 419.099 81.1867C420.259 81.6818 421.23 82.3853 422.011 83.2974C422.806 84.2094 423.405 85.3038 423.809 86.5806C424.213 87.8444 424.415 89.2515 424.415 90.802V93.1472H407.608V89.3949H418.884V88.9649C418.884 88.1832 418.741 87.4861 418.454 86.8738C418.181 86.2484 417.764 85.7533 417.204 85.3885C416.643 85.0237 415.927 84.8413 415.054 84.8413C414.311 84.8413 413.673 85.0041 413.139 85.3299C412.605 85.6556 412.168 86.1116 411.829 86.6979C411.504 87.2842 411.256 87.9747 411.087 88.7695C410.93 89.5512 410.852 90.4111 410.852 91.3492V92.1309C410.852 92.9778 410.969 93.7595 411.204 94.4761C411.451 95.1927 411.797 95.8116 412.24 96.3327C412.696 96.8539 413.243 97.2578 413.881 97.5444C414.533 97.831 415.269 97.9743 416.09 97.9743C417.106 97.9743 418.051 97.7789 418.924 97.388C419.809 96.9842 420.572 96.3783 421.21 95.5705L423.946 98.5411C423.503 99.1795 422.897 99.7919 422.129 100.378C421.373 100.964 420.461 101.447 419.393 101.824C418.324 102.189 417.106 102.372 415.738 102.372ZM439.053 96.1373C439.053 95.7334 438.936 95.3686 438.701 95.0429C438.467 94.7171 438.03 94.4175 437.392 94.1439C436.767 93.8572 435.861 93.5967 434.675 93.3621C433.607 93.1276 432.61 92.8345 431.685 92.4827C430.773 92.1179 429.978 91.6814 429.301 91.1733C428.637 90.6652 428.115 90.0658 427.738 89.3753C427.36 88.6718 427.171 87.8705 427.171 86.9715C427.171 86.0855 427.36 85.2517 427.738 84.47C428.128 83.6882 428.682 82.9977 429.399 82.3984C430.128 81.786 431.014 81.3105 432.057 80.9717C433.112 80.6199 434.298 80.4441 435.613 80.4441C437.451 80.4441 439.027 80.7372 440.343 81.3235C441.672 81.9098 442.688 82.7176 443.392 83.7469C444.108 84.7631 444.467 85.9227 444.467 87.2256H438.838C438.838 86.6783 438.721 86.1898 438.486 85.7598C438.265 85.3168 437.913 84.9716 437.431 84.724C436.962 84.4634 436.35 84.3332 435.594 84.3332C434.969 84.3332 434.428 84.4439 433.972 84.6654C433.516 84.8739 433.164 85.1605 432.916 85.5253C432.682 85.8771 432.565 86.2679 432.565 86.6979C432.565 87.0236 432.63 87.3168 432.76 87.5773C432.903 87.8249 433.131 88.0529 433.444 88.2614C433.757 88.4698 434.161 88.6652 434.656 88.8476C435.164 89.017 435.789 89.1734 436.532 89.3167C438.056 89.6294 439.418 90.0398 440.617 90.5479C441.815 91.043 442.766 91.7205 443.47 92.5804C444.173 93.4273 444.525 94.5412 444.525 95.9223C444.525 96.8604 444.317 97.7203 443.9 98.502C443.483 99.2837 442.884 99.9678 442.102 100.554C441.32 101.127 440.382 101.577 439.288 101.903C438.206 102.215 436.988 102.372 435.633 102.372C433.666 102.372 431.998 102.02 430.63 101.316C429.275 100.613 428.246 99.7202 427.542 98.6388C426.852 97.5444 426.506 96.4239 426.506 95.2774H431.842C431.868 96.0461 432.063 96.6649 432.428 97.134C432.806 97.603 433.281 97.9418 433.855 98.1502C434.441 98.3587 435.073 98.4629 435.75 98.4629C436.48 98.4629 437.086 98.3652 437.568 98.1698C438.05 97.9613 438.415 97.6877 438.662 97.349C438.923 96.9972 439.053 96.5933 439.053 96.1373ZM457.912 102.372C456.271 102.372 454.798 102.111 453.496 101.59C452.193 101.056 451.085 100.32 450.173 99.3815C449.274 98.4434 448.584 97.3555 448.102 96.1177C447.62 94.867 447.378 93.538 447.378 92.1309V91.3492C447.378 89.7466 447.607 88.2809 448.063 86.952C448.519 85.623 449.17 84.47 450.017 83.4928C450.877 82.5156 451.919 81.7665 453.144 81.2453C454.368 80.7111 455.75 80.4441 457.287 80.4441C458.785 80.4441 460.114 80.6916 461.274 81.1867C462.433 81.6818 463.404 82.3853 464.186 83.2974C464.98 84.2094 465.58 85.3038 465.984 86.5806C466.388 87.8444 466.59 89.2515 466.59 90.802V93.1472H449.782V89.3949H461.059V88.9649C461.059 88.1832 460.915 87.4861 460.629 86.8738C460.355 86.2484 459.938 85.7533 459.378 85.3885C458.818 85.0237 458.101 84.8413 457.228 84.8413C456.486 84.8413 455.847 85.0041 455.313 85.3299C454.779 85.6556 454.342 86.1116 454.004 86.6979C453.678 87.2842 453.43 87.9747 453.261 88.7695C453.105 89.5512 453.026 90.4111 453.026 91.3492V92.1309C453.026 92.9778 453.144 93.7595 453.378 94.4761C453.626 95.1927 453.971 95.8116 454.414 96.3327C454.87 96.8539 455.417 97.2578 456.056 97.5444C456.707 97.831 457.443 97.9743 458.264 97.9743C459.28 97.9743 460.225 97.7789 461.098 97.388C461.984 96.9842 462.746 96.3783 463.384 95.5705L466.12 98.5411C465.677 99.1795 465.072 99.7919 464.303 100.378C463.547 100.964 462.635 101.447 461.567 101.824C460.499 102.189 459.28 102.372 457.912 102.372ZM475.306 85.3494V101.981H469.677V80.8349H474.954L475.306 85.3494ZM474.485 90.6652H472.961C472.961 89.1017 473.163 87.6946 473.566 86.4438C473.97 85.18 474.537 84.1052 475.267 83.2192C475.996 82.3202 476.863 81.6362 477.866 81.1672C478.882 80.6851 480.016 80.4441 481.266 80.4441C482.257 80.4441 483.162 80.5874 483.983 80.874C484.804 81.1606 485.507 81.6166 486.094 82.242C486.693 82.8674 487.149 83.6947 487.462 84.724C487.787 85.7533 487.95 87.0106 487.95 88.4959V101.981H482.283V88.4763C482.283 87.5383 482.152 86.8086 481.892 86.2875C481.631 85.7663 481.247 85.4015 480.739 85.1931C480.244 84.9716 479.631 84.8608 478.902 84.8608C478.146 84.8608 477.488 85.0107 476.928 85.3103C476.381 85.61 475.925 86.0269 475.56 86.5611C475.208 87.0822 474.941 87.6946 474.759 88.3982C474.576 89.1017 474.485 89.8574 474.485 90.6652ZM502.588 80.8349V84.8217H490.276V80.8349H502.588ZM493.325 75.6169H498.953V95.6096C498.953 96.222 499.031 96.691 499.188 97.0167C499.357 97.3424 499.605 97.5705 499.93 97.7007C500.256 97.818 500.666 97.8766 501.162 97.8766C501.513 97.8766 501.826 97.8636 502.1 97.8375C502.386 97.7985 502.627 97.7594 502.823 97.7203L502.842 101.863C502.36 102.02 501.839 102.144 501.279 102.235C500.719 102.326 500.1 102.372 499.422 102.372C498.184 102.372 497.103 102.17 496.178 101.766C495.266 101.349 494.562 100.684 494.067 99.7723C493.572 98.8603 493.325 97.6617 493.325 96.1764V75.6169ZM517.207 97.2122V87.7923C517.207 87.1148 517.096 86.535 516.874 86.053C516.653 85.5579 516.308 85.1735 515.839 84.8999C515.382 84.6263 514.79 84.4895 514.06 84.4895C513.435 84.4895 512.894 84.6002 512.438 84.8217C511.982 85.0302 511.63 85.3364 511.383 85.7403C511.135 86.1311 511.011 86.5937 511.011 87.1278H505.383C505.383 86.2289 505.591 85.3755 506.008 84.5677C506.425 83.7599 507.031 83.0498 507.826 82.4375C508.621 81.8121 509.565 81.3235 510.66 80.9717C511.767 80.6199 513.005 80.4441 514.373 80.4441C516.014 80.4441 517.474 80.7177 518.75 81.2649C520.027 81.8121 521.03 82.6329 521.76 83.7273C522.503 84.8217 522.874 86.1898 522.874 87.8314V96.8799C522.874 98.0395 522.946 98.9906 523.089 99.7332C523.232 100.463 523.441 101.101 523.714 101.648V101.981H518.027C517.754 101.407 517.545 100.691 517.402 99.831C517.272 98.958 517.207 98.0851 517.207 97.2122ZM517.949 89.1017L517.988 92.2873H514.842C514.099 92.2873 513.454 92.3719 512.907 92.5413C512.36 92.7107 511.91 92.9517 511.559 93.2644C511.207 93.5641 510.946 93.9159 510.777 94.3198C510.62 94.7237 510.542 95.1666 510.542 95.6487C510.542 96.1308 510.653 96.5672 510.875 96.9581C511.096 97.3359 511.415 97.6356 511.832 97.8571C512.249 98.0655 512.738 98.1698 513.298 98.1698C514.145 98.1698 514.881 98.0004 515.506 97.6617C516.132 97.3229 516.614 96.906 516.952 96.4109C517.304 95.9158 517.487 95.4468 517.5 95.0038L518.985 97.388C518.777 97.9222 518.49 98.476 518.125 99.0492C517.773 99.6225 517.324 100.163 516.777 100.671C516.229 101.166 515.571 101.577 514.803 101.903C514.034 102.215 513.122 102.372 512.067 102.372C510.725 102.372 509.506 102.104 508.412 101.57C507.331 101.023 506.471 100.274 505.832 99.3228C505.207 98.3587 504.894 97.2643 504.894 96.0396C504.894 94.9321 505.103 93.9484 505.52 93.0885C505.937 92.2286 506.549 91.5055 507.357 90.9192C508.178 90.3199 509.2 89.8704 510.425 89.5707C511.65 89.2581 513.07 89.1017 514.685 89.1017H517.949ZM537.571 80.8349V84.8217H525.258V80.8349H537.571ZM528.307 75.6169H533.936V95.6096C533.936 96.222 534.014 96.691 534.17 97.0167C534.339 97.3424 534.587 97.5705 534.913 97.7007C535.238 97.818 535.649 97.8766 536.144 97.8766C536.496 97.8766 536.808 97.8636 537.082 97.8375C537.369 97.7985 537.61 97.7594 537.805 97.7203L537.825 101.863C537.343 102.02 536.821 102.144 536.261 102.235C535.701 102.326 535.082 102.372 534.405 102.372C533.167 102.372 532.085 102.17 531.16 101.766C530.248 101.349 529.545 100.684 529.05 99.7723C528.555 98.8603 528.307 97.6617 528.307 96.1764V75.6169ZM546.717 80.8349V101.981H541.069V80.8349H546.717ZM540.717 75.3237C540.717 74.5029 541.004 73.8254 541.577 73.2912C542.15 72.757 542.919 72.4899 543.883 72.4899C544.834 72.4899 545.596 72.757 546.17 73.2912C546.756 73.8254 547.049 74.5029 547.049 75.3237C547.049 76.1445 546.756 76.822 546.17 77.3562C545.596 77.8904 544.834 78.1575 543.883 78.1575C542.919 78.1575 542.15 77.8904 541.577 77.3562C541.004 76.822 540.717 76.1445 540.717 75.3237ZM550.469 91.6228V91.2124C550.469 89.662 550.691 88.2353 551.134 86.9324C551.577 85.6165 552.222 84.4765 553.068 83.5123C553.915 82.5482 554.958 81.799 556.195 81.2649C557.433 80.7177 558.853 80.4441 560.456 80.4441C562.058 80.4441 563.485 80.7177 564.736 81.2649C565.986 81.799 567.035 82.5482 567.882 83.5123C568.742 84.4765 569.394 85.6165 569.837 86.9324C570.279 88.2353 570.501 89.662 570.501 91.2124V91.6228C570.501 93.1602 570.279 94.5868 569.837 95.9028C569.394 97.2056 568.742 98.3457 567.882 99.3228C567.035 100.287 565.993 101.036 564.755 101.57C563.518 102.104 562.097 102.372 560.495 102.372C558.892 102.372 557.466 102.104 556.215 101.57C554.977 101.036 553.928 100.287 553.068 99.3228C552.222 98.3457 551.577 97.2056 551.134 95.9028C550.691 94.5868 550.469 93.1602 550.469 91.6228ZM556.098 91.2124V91.6228C556.098 92.5088 556.176 93.3361 556.332 94.1048C556.488 94.8735 556.736 95.551 557.075 96.1373C557.427 96.7105 557.883 97.16 558.443 97.4858C559.003 97.8115 559.687 97.9743 560.495 97.9743C561.277 97.9743 561.948 97.8115 562.508 97.4858C563.068 97.16 563.518 96.7105 563.856 96.1373C564.195 95.551 564.443 94.8735 564.599 94.1048C564.768 93.3361 564.853 92.5088 564.853 91.6228V91.2124C564.853 90.3525 564.768 89.5447 564.599 88.789C564.443 88.0203 564.189 87.3428 563.837 86.7565C563.498 86.1572 563.048 85.6882 562.488 85.3494C561.928 85.0107 561.251 84.8413 560.456 84.8413C559.661 84.8413 558.983 85.0107 558.423 85.3494C557.876 85.6882 557.427 86.1572 557.075 86.7565C556.736 87.3428 556.488 88.0203 556.332 88.789C556.176 89.5447 556.098 90.3525 556.098 91.2124ZM579.471 85.3494V101.981H573.843V80.8349H579.12L579.471 85.3494ZM578.651 90.6652H577.126C577.126 89.1017 577.328 87.6946 577.732 86.4438C578.136 85.18 578.703 84.1052 579.432 83.2192C580.162 82.3202 581.028 81.6362 582.031 81.1672C583.048 80.6851 584.181 80.4441 585.432 80.4441C586.422 80.4441 587.328 80.5874 588.149 80.874C588.969 81.1606 589.673 81.6166 590.259 82.242C590.859 82.8674 591.315 83.6947 591.627 84.724C591.953 85.7533 592.116 87.0106 592.116 88.4959V101.981H586.448V88.4763C586.448 87.5383 586.318 86.8086 586.057 86.2875C585.797 85.7663 585.412 85.4015 584.904 85.1931C584.409 84.9716 583.797 84.8608 583.067 84.8608C582.312 84.8608 581.654 85.0107 581.093 85.3103C580.546 85.61 580.09 86.0269 579.725 86.5611C579.374 87.0822 579.107 87.6946 578.924 88.3982C578.742 89.1017 578.651 89.8574 578.651 90.6652Z" fill="black"/>
<path d="M367.348 851.415V879.87H361.505V851.415H367.348ZM377.999 863.239V879.87H372.371V858.724H377.647L377.999 863.239ZM377.178 868.555H375.654C375.654 866.991 375.856 865.584 376.26 864.333C376.664 863.069 377.231 861.995 377.96 861.109C378.69 860.21 379.556 859.526 380.559 859.057C381.576 858.574 382.709 858.333 383.96 858.333C384.95 858.333 385.856 858.477 386.676 858.763C387.497 859.05 388.201 859.506 388.787 860.131C389.386 860.757 389.842 861.584 390.155 862.613C390.481 863.643 390.644 864.9 390.644 866.385V879.87H384.976V866.366C384.976 865.428 384.846 864.698 384.585 864.177C384.325 863.656 383.94 863.291 383.432 863.082C382.937 862.861 382.325 862.75 381.595 862.75C380.84 862.75 380.182 862.9 379.621 863.2C379.074 863.499 378.618 863.916 378.253 864.45C377.902 864.972 377.634 865.584 377.452 866.288C377.27 866.991 377.178 867.747 377.178 868.555ZM402.096 879.87H396.429V856.848C396.429 855.246 396.741 853.897 397.367 852.803C398.005 851.695 398.897 850.861 400.044 850.301C401.204 849.728 402.578 849.441 404.168 849.441C404.689 849.441 405.19 849.48 405.672 849.559C406.155 849.624 406.624 849.708 407.08 849.813L407.021 854.053C406.773 853.988 406.513 853.943 406.239 853.917C405.966 853.891 405.646 853.878 405.282 853.878C404.604 853.878 404.024 853.995 403.542 854.229C403.073 854.451 402.715 854.783 402.467 855.226C402.22 855.669 402.096 856.21 402.096 856.848V879.87ZM406.317 858.724V862.711H393.282V858.724H406.317ZM414.897 863.337V879.87H409.268V858.724H414.565L414.897 863.337ZM421.268 858.588L421.17 863.806C420.897 863.766 420.564 863.734 420.174 863.708C419.796 863.669 419.45 863.649 419.138 863.649C418.343 863.649 417.652 863.753 417.066 863.962C416.493 864.157 416.011 864.45 415.62 864.841C415.242 865.232 414.956 865.708 414.76 866.268C414.578 866.828 414.473 867.467 414.447 868.183L413.314 867.831C413.314 866.463 413.451 865.206 413.724 864.06C413.998 862.9 414.395 861.89 414.916 861.03C415.451 860.171 416.102 859.506 416.871 859.037C417.639 858.568 418.519 858.333 419.509 858.333C419.822 858.333 420.141 858.36 420.467 858.412C420.792 858.451 421.06 858.509 421.268 858.588ZM434.675 875.102V865.682C434.675 865.004 434.564 864.424 434.342 863.942C434.121 863.447 433.776 863.063 433.307 862.789C432.851 862.516 432.258 862.379 431.528 862.379C430.903 862.379 430.362 862.49 429.906 862.711C429.45 862.92 429.098 863.226 428.851 863.63C428.603 864.021 428.479 864.483 428.479 865.017H422.851C422.851 864.118 423.059 863.265 423.476 862.457C423.893 861.649 424.499 860.939 425.294 860.327C426.089 859.701 427.033 859.213 428.128 858.861C429.235 858.509 430.473 858.333 431.841 858.333C433.483 858.333 434.942 858.607 436.219 859.154C437.495 859.701 438.499 860.522 439.228 861.617C439.971 862.711 440.342 864.079 440.342 865.721V874.769C440.342 875.929 440.414 876.88 440.557 877.623C440.7 878.352 440.909 878.991 441.183 879.538V879.87H435.495C435.222 879.297 435.013 878.58 434.87 877.72C434.74 876.847 434.675 875.974 434.675 875.102ZM435.417 866.991L435.456 870.177H432.31C431.567 870.177 430.922 870.261 430.375 870.431C429.828 870.6 429.378 870.841 429.027 871.154C428.675 871.453 428.414 871.805 428.245 872.209C428.089 872.613 428.01 873.056 428.01 873.538C428.01 874.02 428.121 874.457 428.343 874.848C428.564 875.225 428.883 875.525 429.3 875.746C429.717 875.955 430.206 876.059 430.766 876.059C431.613 876.059 432.349 875.89 432.974 875.551C433.6 875.212 434.082 874.795 434.421 874.3C434.772 873.805 434.955 873.336 434.968 872.893L436.453 875.277C436.245 875.812 435.958 876.365 435.593 876.939C435.241 877.512 434.792 878.053 434.245 878.561C433.697 879.056 433.04 879.466 432.271 879.792C431.502 880.105 430.59 880.261 429.535 880.261C428.193 880.261 426.975 879.994 425.88 879.46C424.799 878.912 423.939 878.163 423.3 877.212C422.675 876.248 422.362 875.154 422.362 873.929C422.362 872.822 422.571 871.838 422.988 870.978C423.405 870.118 424.017 869.395 424.825 868.809C425.646 868.209 426.668 867.76 427.893 867.46C429.118 867.147 430.538 866.991 432.154 866.991H435.417ZM456.114 874.027C456.114 873.623 455.996 873.258 455.762 872.932C455.527 872.607 455.091 872.307 454.452 872.033C453.827 871.747 452.922 871.486 451.736 871.252C450.668 871.017 449.671 870.724 448.746 870.372C447.834 870.007 447.039 869.571 446.362 869.063C445.697 868.555 445.176 867.955 444.798 867.265C444.42 866.561 444.231 865.76 444.231 864.861C444.231 863.975 444.42 863.141 444.798 862.359C445.189 861.578 445.743 860.887 446.459 860.288C447.189 859.675 448.075 859.2 449.117 858.861C450.172 858.509 451.358 858.333 452.674 858.333C454.511 858.333 456.088 858.627 457.403 859.213C458.732 859.799 459.749 860.607 460.452 861.636C461.169 862.653 461.527 863.812 461.527 865.115H455.899C455.899 864.568 455.781 864.079 455.547 863.649C455.325 863.206 454.974 862.861 454.492 862.613C454.022 862.353 453.41 862.223 452.654 862.223C452.029 862.223 451.488 862.333 451.032 862.555C450.576 862.763 450.225 863.05 449.977 863.415C449.743 863.766 449.625 864.157 449.625 864.587C449.625 864.913 449.69 865.206 449.821 865.467C449.964 865.714 450.192 865.942 450.505 866.151C450.817 866.359 451.221 866.555 451.716 866.737C452.224 866.906 452.85 867.063 453.593 867.206C455.117 867.519 456.478 867.929 457.677 868.437C458.876 868.932 459.827 869.61 460.53 870.47C461.234 871.317 461.586 872.431 461.586 873.812C461.586 874.75 461.377 875.61 460.96 876.391C460.543 877.173 459.944 877.857 459.162 878.443C458.381 879.017 457.443 879.466 456.348 879.792C455.267 880.105 454.049 880.261 452.694 880.261C450.726 880.261 449.058 879.909 447.69 879.206C446.335 878.502 445.306 877.61 444.603 876.528C443.912 875.434 443.567 874.313 443.567 873.167H448.902C448.928 873.935 449.124 874.554 449.488 875.023C449.866 875.492 450.342 875.831 450.915 876.04C451.501 876.248 452.133 876.352 452.811 876.352C453.54 876.352 454.146 876.255 454.628 876.059C455.11 875.851 455.475 875.577 455.723 875.238C455.983 874.887 456.114 874.483 456.114 874.027ZM475.598 858.724V862.711H463.286V858.724H475.598ZM466.335 853.506H471.963V873.499C471.963 874.111 472.041 874.58 472.198 874.906C472.367 875.232 472.615 875.46 472.94 875.59C473.266 875.707 473.676 875.766 474.172 875.766C474.523 875.766 474.836 875.753 475.11 875.727C475.396 875.688 475.637 875.649 475.833 875.61L475.852 879.753C475.37 879.909 474.849 880.033 474.289 880.124C473.729 880.215 473.11 880.261 472.432 880.261C471.194 880.261 470.113 880.059 469.188 879.655C468.276 879.238 467.572 878.574 467.077 877.662C466.582 876.75 466.335 875.551 466.335 874.066V853.506ZM484.432 863.337V879.87H478.803V858.724H484.1L484.432 863.337ZM490.803 858.588L490.705 863.806C490.432 863.766 490.099 863.734 489.708 863.708C489.331 863.669 488.985 863.649 488.673 863.649C487.878 863.649 487.187 863.753 486.601 863.962C486.028 864.157 485.546 864.45 485.155 864.841C484.777 865.232 484.49 865.708 484.295 866.268C484.113 866.828 484.008 867.467 483.982 868.183L482.849 867.831C482.849 866.463 482.986 865.206 483.259 864.06C483.533 862.9 483.93 861.89 484.451 861.03C484.986 860.171 485.637 859.506 486.406 859.037C487.174 858.568 488.054 858.333 489.044 858.333C489.357 858.333 489.676 858.36 490.002 858.412C490.327 858.451 490.594 858.509 490.803 858.588ZM505.968 874.808V858.724H511.597V879.87H506.301L505.968 874.808ZM506.594 870.47L508.255 870.431C508.255 871.838 508.092 873.147 507.766 874.359C507.441 875.558 506.952 876.6 506.301 877.486C505.649 878.359 504.828 879.043 503.838 879.538C502.848 880.02 501.682 880.261 500.34 880.261C499.311 880.261 498.36 880.118 497.487 879.831C496.627 879.531 495.884 879.069 495.259 878.443C494.646 877.805 494.164 876.991 493.813 876.001C493.474 874.997 493.304 873.792 493.304 872.385V858.724H498.933V872.424C498.933 873.05 499.005 873.577 499.148 874.007C499.304 874.437 499.519 874.789 499.793 875.062C500.066 875.336 500.386 875.532 500.75 875.649C501.128 875.766 501.545 875.825 502.001 875.825C503.161 875.825 504.073 875.59 504.737 875.121C505.415 874.652 505.89 874.014 506.164 873.206C506.451 872.385 506.594 871.473 506.594 870.47ZM524.632 875.864C525.323 875.864 525.935 875.733 526.469 875.473C527.003 875.199 527.42 874.821 527.72 874.339C528.033 873.844 528.196 873.264 528.209 872.6H533.505C533.492 874.085 533.094 875.408 532.313 876.567C531.531 877.714 530.482 878.619 529.166 879.284C527.85 879.935 526.378 880.261 524.75 880.261C523.108 880.261 521.675 879.987 520.45 879.44C519.238 878.893 518.229 878.137 517.421 877.173C516.613 876.196 516.007 875.062 515.603 873.773C515.199 872.47 514.997 871.076 514.997 869.59V869.024C514.997 867.525 515.199 866.131 515.603 864.841C516.007 863.538 516.613 862.405 517.421 861.441C518.229 860.464 519.238 859.701 520.45 859.154C521.662 858.607 523.082 858.333 524.71 858.333C526.443 858.333 527.961 858.666 529.264 859.33C530.58 859.995 531.609 860.946 532.352 862.183C533.107 863.408 533.492 864.861 533.505 866.542H528.209C528.196 865.838 528.046 865.2 527.759 864.626C527.486 864.053 527.082 863.597 526.547 863.258C526.026 862.907 525.381 862.731 524.613 862.731C523.792 862.731 523.121 862.907 522.6 863.258C522.079 863.597 521.675 864.066 521.388 864.665C521.101 865.252 520.899 865.923 520.782 866.678C520.678 867.421 520.626 868.203 520.626 869.024V869.59C520.626 870.411 520.678 871.199 520.782 871.955C520.886 872.711 521.082 873.382 521.369 873.968C521.668 874.554 522.079 875.017 522.6 875.356C523.121 875.694 523.798 875.864 524.632 875.864ZM547.127 858.724V862.711H534.814V858.724H547.127ZM537.863 853.506H543.491V873.499C543.491 874.111 543.57 874.58 543.726 874.906C543.895 875.232 544.143 875.46 544.469 875.59C544.794 875.707 545.205 875.766 545.7 875.766C546.052 875.766 546.364 875.753 546.638 875.727C546.925 875.688 547.166 875.649 547.361 875.61L547.381 879.753C546.899 879.909 546.377 880.033 545.817 880.124C545.257 880.215 544.638 880.261 543.961 880.261C542.723 880.261 541.641 880.059 540.716 879.655C539.804 879.238 539.101 878.574 538.606 877.662C538.111 876.75 537.863 875.551 537.863 874.066V853.506ZM562.839 874.808V858.724H568.468V879.87H563.172L562.839 874.808ZM563.465 870.47L565.126 870.431C565.126 871.838 564.963 873.147 564.637 874.359C564.312 875.558 563.823 876.6 563.172 877.486C562.52 878.359 561.699 879.043 560.709 879.538C559.719 880.02 558.553 880.261 557.211 880.261C556.182 880.261 555.23 880.118 554.358 879.831C553.498 879.531 552.755 879.069 552.13 878.443C551.517 877.805 551.035 876.991 550.683 876.001C550.345 874.997 550.175 873.792 550.175 872.385V858.724H555.804V872.424C555.804 873.05 555.875 873.577 556.019 874.007C556.175 874.437 556.39 874.789 556.664 875.062C556.937 875.336 557.256 875.532 557.621 875.649C557.999 875.766 558.416 875.825 558.872 875.825C560.032 875.825 560.944 875.59 561.608 875.121C562.286 874.652 562.761 874.014 563.035 873.206C563.321 872.385 563.465 871.473 563.465 870.47ZM578.396 863.337V879.87H572.767V858.724H578.063L578.396 863.337ZM584.767 858.588L584.669 863.806C584.396 863.766 584.063 863.734 583.672 863.708C583.295 863.669 582.949 863.649 582.637 863.649C581.842 863.649 581.151 863.753 580.565 863.962C579.992 864.157 579.51 864.45 579.119 864.841C578.741 865.232 578.454 865.708 578.259 866.268C578.077 866.828 577.972 867.467 577.946 868.183L576.813 867.831C576.813 866.463 576.95 865.206 577.223 864.06C577.497 862.9 577.894 861.89 578.415 861.03C578.949 860.171 579.601 859.506 580.37 859.037C581.138 858.568 582.018 858.333 583.008 858.333C583.321 858.333 583.64 858.36 583.966 858.412C584.291 858.451 584.558 858.509 584.767 858.588ZM596.766 880.261C595.125 880.261 593.652 880 592.35 879.479C591.047 878.945 589.939 878.209 589.027 877.271C588.128 876.333 587.438 875.245 586.956 874.007C586.474 872.756 586.233 871.427 586.233 870.02V869.239C586.233 867.636 586.461 866.17 586.917 864.841C587.373 863.512 588.024 862.359 588.871 861.382C589.731 860.405 590.773 859.656 591.998 859.135C593.223 858.601 594.604 858.333 596.141 858.333C597.639 858.333 598.968 858.581 600.128 859.076C601.287 859.571 602.258 860.275 603.04 861.187C603.835 862.099 604.434 863.193 604.838 864.47C605.242 865.734 605.444 867.141 605.444 868.691V871.037H588.636V867.284H599.913V866.854C599.913 866.073 599.77 865.376 599.483 864.763C599.209 864.138 598.792 863.643 598.232 863.278C597.672 862.913 596.955 862.731 596.082 862.731C595.34 862.731 594.701 862.894 594.167 863.219C593.633 863.545 593.196 864.001 592.858 864.587C592.532 865.174 592.284 865.864 592.115 866.659C591.959 867.441 591.881 868.301 591.881 869.239V870.02C591.881 870.867 591.998 871.649 592.232 872.366C592.48 873.082 592.825 873.701 593.268 874.222C593.724 874.743 594.271 875.147 594.91 875.434C595.561 875.72 596.297 875.864 597.118 875.864C598.134 875.864 599.079 875.668 599.952 875.277C600.838 874.874 601.6 874.268 602.238 873.46L604.975 876.431C604.532 877.069 603.926 877.681 603.157 878.268C602.401 878.854 601.489 879.336 600.421 879.714C599.353 880.079 598.134 880.261 596.766 880.261Z" fill="black"/>
<path d="M479.118 205.303L500.187 168.81L458.048 168.81L479.118 205.303ZM475.468 126.195L475.468 172.459L482.767 172.459L482.767 126.195L475.468 126.195Z" fill="black"/>
<path d="M479.118 355.042L500.187 318.549L458.048 318.549L479.118 355.042ZM475.468 270.99L475.468 322.198L482.767 322.198L482.767 270.99L475.468 270.99Z" fill="black"/>
<path d="M479.118 762.115L458.048 798.608L500.187 798.608L479.118 762.115ZM482.767 842.87L482.767 794.958L475.468 794.958L475.468 842.87L482.767 842.87Z" fill="black"/>
<defs>
<filter id="filter0_d_9_6665" x="113.481" y="121.486" width="731.037" height="731.037" filterUnits="userSpaceOnUse" color-interpolation-filters="sRGB">
<feFlood flood-opacity="0" result="BackgroundImageFix"/>
<feColorMatrix in="SourceAlpha" type="matrix" values="0 0 0 0 0 0 0 0 0 0 0 0 0 0 0 0 0 0 127 0" result="hardAlpha"/>
<feMorphology radius="11.7719" operator="dilate" in="SourceAlpha" result="effect1_dropShadow_9_6665"/>
<feOffset dy="0.941755"/>
<feGaussianBlur stdDeviation="11.7719"/>
<feComposite in2="hardAlpha" operator="out"/>
<feColorMatrix type="matrix" values="0 0 0 0 0 0 0 0 0 0 0 0 0 0 0 0 0 0 0.25 0"/>
<feBlend mode="normal" in2="BackgroundImageFix" result="effect1_dropShadow_9_6665"/>
<feBlend mode="normal" in="SourceGraphic" in2="effect1_dropShadow_9_6665" result="shape"/>
</filter>
<filter id="filter1_d_9_6665" x="258.983" y="266.988" width="440.035" height="440.035" filterUnits="userSpaceOnUse" color-interpolation-filters="sRGB">
<feFlood flood-opacity="0" result="BackgroundImageFix"/>
<feColorMatrix in="SourceAlpha" type="matrix" values="0 0 0 0 0 0 0 0 0 0 0 0 0 0 0 0 0 0 127 0" result="hardAlpha"/>
<feMorphology radius="11.7719" operator="dilate" in="SourceAlpha" result="effect1_dropShadow_9_6665"/>
<feOffset dy="0.941755"/>
<feGaussianBlur stdDeviation="11.7719"/>
<feComposite in2="hardAlpha" operator="out"/>
<feColorMatrix type="matrix" values="0 0 0 0 0 0 0 0 0 0 0 0 0 0 0 0 0 0 0.25 0"/>
<feBlend mode="normal" in2="BackgroundImageFix" result="effect1_dropShadow_9_6665"/>
<feBlend mode="normal" in="SourceGraphic" in2="effect1_dropShadow_9_6665" result="shape"/>
</filter>
</defs>
</svg>
