<svg width="4989" height="363" viewBox="0 0 4989 363" fill="none" xmlns="http://www.w3.org/2000/svg">
<path d="M228.306 259.677C215.915 270.334 202.037 278.512 186.672 284.212C171.307 289.912 155.384 292.762 138.904 292.762C126.264 292.762 114.059 291.089 102.287 287.743C90.6396 284.522 79.6733 279.937 69.3886 273.989C59.2278 267.917 49.9343 260.669 41.5083 252.243C33.0822 243.816 25.8334 234.523 19.7616 224.362C13.8138 214.077 9.16712 203.111 5.82148 191.463C2.59976 179.692 0.988896 167.486 0.988896 154.847C0.988896 142.208 2.59976 130.003 5.82148 118.231C9.16712 106.459 13.8138 95.4932 19.7616 85.3324C25.8334 75.0476 33.0822 65.6922 41.5083 57.2662C49.9343 48.8401 59.2278 41.6532 69.3886 35.7054C79.6733 29.6337 90.6396 24.987 102.287 21.7652C114.059 18.4196 126.264 16.7468 138.904 16.7468C155.384 16.7468 171.307 19.5968 186.672 25.2968C202.037 30.8728 215.915 39.051 228.306 49.8314L200.054 96.2986C192.248 87.8726 183.016 81.4291 172.36 76.9683C161.703 72.3835 150.551 70.0911 138.904 70.0911C127.132 70.0911 116.104 72.3216 105.819 76.7824C95.5342 81.2433 86.5505 87.315 78.8679 94.9975C71.1853 102.556 65.1136 111.54 60.6528 121.949C56.1919 132.233 53.9615 143.2 53.9615 154.847C53.9615 166.495 56.1919 177.461 60.6528 187.746C65.1136 197.907 71.1853 206.829 78.8679 214.511C86.5505 222.194 95.5342 228.265 105.819 232.726C116.104 237.187 127.132 239.418 138.904 239.418C150.551 239.418 161.703 237.187 172.36 232.726C183.016 228.142 192.248 221.636 200.054 213.21L228.306 259.677ZM305.07 287H253.956V8.75443H305.07V287ZM423.097 238.302C425.08 238.922 427.062 239.356 429.045 239.603C431.027 239.727 433.01 239.789 434.993 239.789C439.949 239.789 444.72 239.108 449.304 237.745C453.889 236.382 458.164 234.461 462.129 231.983C466.218 229.381 469.812 226.283 472.91 222.689C476.131 218.972 478.734 214.883 480.716 210.422L517.89 247.782C513.181 254.473 507.729 260.483 501.534 265.811C495.462 271.139 488.833 275.662 481.646 279.379C474.583 283.097 467.086 285.885 459.155 287.743C451.349 289.726 443.295 290.717 434.993 290.717C420.99 290.717 407.794 288.115 395.402 282.911C383.135 277.707 372.355 270.458 363.061 261.164C353.892 251.871 346.643 240.843 341.315 228.08C335.986 215.193 333.322 201.067 333.322 185.702C333.322 169.965 335.986 155.591 341.315 142.58C346.643 129.569 353.892 118.479 363.061 109.309C372.355 100.14 383.135 93.0149 395.402 87.9345C407.794 82.8541 420.99 80.3139 434.993 80.3139C443.295 80.3139 451.411 81.3052 459.341 83.2878C467.272 85.2704 474.768 88.1204 481.831 91.8378C489.018 95.5552 495.71 100.14 501.905 105.592C508.101 110.92 513.553 116.93 518.262 123.621L423.097 238.302ZM449.119 133.658C446.764 132.791 444.41 132.233 442.056 131.985C439.825 131.738 437.471 131.614 434.993 131.614C428.053 131.614 421.486 132.915 415.29 135.517C409.219 137.995 403.89 141.589 399.306 146.297C394.845 151.006 391.313 156.706 388.711 163.397C386.109 169.965 384.808 177.399 384.808 185.702C384.808 187.56 384.87 189.667 384.994 192.021C385.242 194.375 385.551 196.792 385.923 199.27C386.419 201.624 386.976 203.917 387.596 206.147C388.216 208.378 389.021 210.36 390.012 212.095L449.119 133.658ZM735.171 287H722.903L703.201 259.677C698.369 264.014 693.226 268.103 687.774 271.945C682.446 275.662 676.808 278.946 670.86 281.796C664.912 284.522 658.779 286.69 652.459 288.301C646.263 289.912 639.944 290.717 633.5 290.717C619.498 290.717 606.302 288.363 593.91 283.654C581.643 278.946 570.863 272.13 561.569 263.209C552.4 254.163 545.151 243.135 539.822 230.124C534.494 217.113 531.83 202.306 531.83 185.702C531.83 170.212 534.494 156.024 539.822 143.138C545.151 130.127 552.4 118.975 561.569 109.681C570.863 100.388 581.643 93.2008 593.91 88.1204C606.302 82.9161 619.498 80.3139 633.5 80.3139C639.944 80.3139 646.325 81.1193 652.645 82.7302C658.964 84.3411 665.098 86.5715 671.046 89.4215C676.994 92.2715 682.632 95.6171 687.96 99.4584C693.412 103.3 698.492 107.451 703.201 111.912L722.903 88.3063H735.171V287ZM684.057 185.702C684.057 178.762 682.694 172.071 679.968 165.628C677.365 159.06 673.772 153.298 669.187 148.342C664.602 143.261 659.212 139.234 653.017 136.26C646.945 133.163 640.439 131.614 633.5 131.614C626.561 131.614 619.994 132.791 613.798 135.145C607.727 137.5 602.398 140.969 597.814 145.554C593.353 150.139 589.821 155.839 587.219 162.654C584.617 169.345 583.316 177.028 583.316 185.702C583.316 194.375 584.617 202.12 587.219 208.935C589.821 215.626 593.353 221.264 597.814 225.849C602.398 230.434 607.727 233.903 613.798 236.258C619.994 238.612 626.561 239.789 633.5 239.789C640.439 239.789 646.945 238.302 653.017 235.328C659.212 232.231 664.602 228.204 669.187 223.247C673.772 218.167 677.365 212.405 679.968 205.961C682.694 199.394 684.057 192.641 684.057 185.702ZM824.759 287H774.017V87.9345H786.285L803.013 107.265C811.191 99.8301 820.422 94.1302 830.707 90.165C841.116 86.0758 851.958 84.0313 863.234 84.0313C875.378 84.0313 886.84 86.3856 897.62 91.0943C908.4 95.6791 917.818 102.061 925.872 110.239C933.926 118.293 940.246 127.772 944.831 138.677C949.539 149.457 951.894 160.981 951.894 173.248V287H901.151V173.248C901.151 168.044 900.16 163.149 898.178 158.565C896.195 153.856 893.469 149.767 889.999 146.297C886.53 142.828 882.503 140.102 877.918 138.119C873.333 136.137 868.439 135.145 863.234 135.145C857.906 135.145 852.888 136.137 848.179 138.119C843.47 140.102 839.381 142.828 835.911 146.297C832.442 149.767 829.716 153.856 827.733 158.565C825.751 163.149 824.759 168.044 824.759 173.248V287Z" fill="#A7D7FD"/>
<path d="M1257.09 180.497V127.153C1257.09 119.842 1255.67 112.965 1252.82 106.521C1250.09 99.954 1246.31 94.2541 1241.48 89.4215C1236.64 84.5889 1230.94 80.8096 1224.38 78.0835C1217.93 75.2335 1211.06 73.8085 1203.75 73.8085C1196.43 73.8085 1189.5 75.2335 1182.93 78.0835C1176.49 80.8096 1170.85 84.5889 1166.01 89.4215C1161.18 94.2541 1157.34 99.954 1154.49 106.521C1151.76 112.965 1150.4 119.842 1150.4 127.153V180.497H1257.09ZM1310.43 287H1257.09V233.656H1150.4V287H1097.24V127.153C1097.24 112.407 1100.03 98.591 1105.61 85.7041C1111.18 72.6933 1118.74 61.3553 1128.28 51.6901C1137.95 42.0249 1149.22 34.4043 1162.11 28.8283C1175.12 23.2522 1189 20.4642 1203.75 20.4642C1218.49 20.4642 1232.31 23.2522 1245.19 28.8283C1258.21 34.4043 1269.54 42.0249 1279.21 51.6901C1288.87 61.3553 1296.49 72.6933 1302.07 85.7041C1307.65 98.591 1310.43 112.407 1310.43 127.153V287ZM1402.07 287H1351.33V87.9345H1363.59L1380.32 111.54C1388.5 104.105 1397.79 98.4051 1408.2 94.4399C1418.61 90.3508 1429.39 88.3063 1440.54 88.3063H1485.34V138.863H1440.54C1435.21 138.863 1430.2 139.854 1425.49 141.836C1420.78 143.819 1416.69 146.545 1413.22 150.015C1409.75 153.484 1407.02 157.573 1405.04 162.282C1403.06 166.991 1402.07 172.009 1402.07 177.337V287ZM1679.2 127.525L1642.02 164.884C1640.17 159.68 1637.63 155.033 1634.4 150.944C1631.18 146.731 1627.53 143.2 1623.44 140.35C1619.47 137.5 1615.14 135.331 1610.43 133.844C1605.72 132.357 1600.89 131.614 1595.93 131.614C1588.99 131.614 1582.42 133.039 1576.23 135.889C1570.16 138.739 1564.83 142.766 1560.24 147.97C1555.78 153.051 1552.25 159.122 1549.65 166.185C1547.05 173.248 1545.74 181.055 1545.74 189.605C1545.74 196.544 1547.05 203.049 1549.65 209.121C1552.25 215.193 1555.78 220.521 1560.24 225.106C1564.83 229.69 1570.16 233.284 1576.23 235.886C1582.42 238.488 1588.99 239.789 1595.93 239.789C1600.89 239.789 1605.66 239.108 1610.24 237.745C1614.83 236.382 1619.1 234.461 1623.07 231.983C1627.15 229.381 1630.75 226.283 1633.85 222.689C1637.07 218.972 1639.67 214.883 1641.65 210.422L1678.83 247.782C1674.12 254.473 1668.67 260.483 1662.47 265.811C1656.4 271.139 1649.77 275.662 1642.58 279.379C1635.52 283.097 1628.02 285.885 1620.09 287.743C1612.29 289.726 1604.23 290.717 1595.93 290.717C1581.93 290.717 1568.73 288.115 1556.34 282.911C1544.07 277.583 1533.29 270.334 1524 261.164C1514.83 251.995 1507.58 241.276 1502.25 229.009C1496.92 216.742 1494.26 203.607 1494.26 189.605C1494.26 174.364 1496.92 160.114 1502.25 146.855C1507.58 133.596 1514.83 122.072 1524 112.283C1533.29 102.37 1544.07 94.5639 1556.34 88.8639C1568.73 83.1639 1581.93 80.3139 1595.93 80.3139C1604.23 80.3139 1612.35 81.3672 1620.28 83.4737C1628.33 85.5802 1635.95 88.678 1643.14 92.7671C1650.45 96.7323 1657.14 101.627 1663.21 107.451C1669.41 113.275 1674.74 119.966 1679.2 127.525ZM1754.85 287H1704.1V8.75443H1754.85V96.6704C1760.92 92.0856 1767.18 88.8639 1773.62 87.0052C1780.06 85.0226 1786.63 84.0313 1793.32 84.0313C1805.59 84.0313 1817.11 86.3856 1827.89 91.0943C1838.67 95.6791 1848.03 102.061 1855.96 110.239C1864.01 118.293 1870.33 127.772 1874.92 138.677C1879.63 149.457 1881.98 160.981 1881.98 173.248V287H1830.87V173.248H1831.24C1831.24 168.044 1830.25 163.149 1828.26 158.565C1826.28 153.856 1823.56 149.767 1820.09 146.297C1816.62 142.828 1812.59 140.102 1808.01 138.119C1803.42 136.137 1798.53 135.145 1793.32 135.145C1787.99 135.145 1782.97 136.137 1778.27 138.119C1773.56 140.102 1769.47 142.828 1766 146.297C1762.53 149.767 1759.8 153.856 1757.82 158.565C1755.84 163.149 1754.85 168.044 1754.85 173.248V287ZM1978.08 33.8467C1978.08 38.5554 1977.15 42.9543 1975.29 47.0434C1973.55 51.1325 1971.14 54.726 1968.04 57.8238C1964.94 60.7977 1961.28 63.214 1957.07 65.0727C1952.98 66.8074 1948.58 67.6748 1943.88 67.6748C1939.17 67.6748 1934.71 66.8074 1930.49 65.0727C1926.4 63.214 1922.81 60.7977 1919.71 57.8238C1916.74 54.726 1914.32 51.1325 1912.46 47.0434C1910.73 42.9543 1909.86 38.5554 1909.86 33.8467C1909.86 29.262 1910.73 24.925 1912.46 20.8359C1914.32 16.6229 1916.74 13.0294 1919.71 10.0555C1922.81 6.9577 1926.4 4.5414 1930.49 2.80663C1934.71 0.94794 1939.17 0.0185963 1943.88 0.0185963C1948.58 0.0185963 1952.98 0.94794 1957.07 2.80663C1961.28 4.5414 1964.94 6.9577 1968.04 10.0555C1971.14 13.0294 1973.55 16.6229 1975.29 20.8359C1977.15 24.925 1978.08 29.262 1978.08 33.8467ZM1969.34 287H1918.23V87.9345H1969.34V287ZM2108 287C2095.73 287 2084.21 284.708 2073.43 280.123C2062.65 275.414 2053.17 269.033 2044.99 260.978C2036.93 252.8 2030.55 243.321 2025.84 232.54C2021.26 221.76 2018.97 210.236 2018.97 197.969V138.863H1994.25V88.3063H2018.97V8.75443H2069.52V88.3063H2146.47V138.863H2069.52V197.969C2069.52 203.297 2070.51 208.316 2072.5 213.024C2074.48 217.609 2077.21 221.636 2080.67 225.106C2084.14 228.575 2088.23 231.363 2092.94 233.47C2097.65 235.452 2102.67 236.444 2108 236.444H2146.47V287H2108ZM2254.28 238.302C2256.26 238.922 2258.24 239.356 2260.22 239.603C2262.21 239.727 2264.19 239.789 2266.17 239.789C2271.13 239.789 2275.9 239.108 2280.48 237.745C2285.07 236.382 2289.34 234.461 2293.31 231.983C2297.4 229.381 2300.99 226.283 2304.09 222.689C2307.31 218.972 2309.91 214.883 2311.9 210.422L2349.07 247.782C2344.36 254.473 2338.91 260.483 2332.71 265.811C2326.64 271.139 2320.01 275.662 2312.82 279.379C2305.76 283.097 2298.27 285.885 2290.33 287.743C2282.53 289.726 2274.47 290.717 2266.17 290.717C2252.17 290.717 2238.97 288.115 2226.58 282.911C2214.31 277.707 2203.53 270.458 2194.24 261.164C2185.07 251.871 2177.82 240.843 2172.49 228.08C2167.17 215.193 2164.5 201.067 2164.5 185.702C2164.5 169.965 2167.17 155.591 2172.49 142.58C2177.82 129.569 2185.07 118.479 2194.24 109.309C2203.53 100.14 2214.31 93.0149 2226.58 87.9345C2238.97 82.8541 2252.17 80.3139 2266.17 80.3139C2274.47 80.3139 2282.59 81.3052 2290.52 83.2878C2298.45 85.2704 2305.95 88.1204 2313.01 91.8378C2320.2 95.5552 2326.89 100.14 2333.08 105.592C2339.28 110.92 2344.73 116.93 2349.44 123.621L2254.28 238.302ZM2280.3 133.658C2277.94 132.791 2275.59 132.233 2273.23 131.985C2271 131.738 2268.65 131.614 2266.17 131.614C2259.23 131.614 2252.67 132.915 2246.47 135.517C2240.4 137.995 2235.07 141.589 2230.48 146.297C2226.02 151.006 2222.49 156.706 2219.89 163.397C2217.29 169.965 2215.99 177.399 2215.99 185.702C2215.99 187.56 2216.05 189.667 2216.17 192.021C2216.42 194.375 2216.73 196.792 2217.1 199.27C2217.6 201.624 2218.16 203.917 2218.78 206.147C2219.39 208.378 2220.2 210.36 2221.19 212.095L2280.3 133.658ZM2547.58 127.525L2510.4 164.884C2508.54 159.68 2506 155.033 2502.78 150.944C2499.56 146.731 2495.91 143.2 2491.82 140.35C2487.85 137.5 2483.51 135.331 2478.81 133.844C2474.1 132.357 2469.26 131.614 2464.31 131.614C2457.37 131.614 2450.8 133.039 2444.61 135.889C2438.53 138.739 2433.21 142.766 2428.62 147.97C2424.16 153.051 2420.63 159.122 2418.03 166.185C2415.42 173.248 2414.12 181.055 2414.12 189.605C2414.12 196.544 2415.42 203.049 2418.03 209.121C2420.63 215.193 2424.16 220.521 2428.62 225.106C2433.21 229.69 2438.53 233.284 2444.61 235.886C2450.8 238.488 2457.37 239.789 2464.31 239.789C2469.26 239.789 2474.04 239.108 2478.62 237.745C2483.2 236.382 2487.48 234.461 2491.44 231.983C2495.53 229.381 2499.13 226.283 2502.23 222.689C2505.45 218.972 2508.05 214.883 2510.03 210.422L2547.21 247.782C2542.5 254.473 2537.04 260.483 2530.85 265.811C2524.78 271.139 2518.15 275.662 2510.96 279.379C2503.9 283.097 2496.4 285.885 2488.47 287.743C2480.66 289.726 2472.61 290.717 2464.31 290.717C2450.31 290.717 2437.11 288.115 2424.72 282.911C2412.45 277.583 2401.67 270.334 2392.38 261.164C2383.21 251.995 2375.96 241.276 2370.63 229.009C2365.3 216.742 2362.64 203.607 2362.64 189.605C2362.64 174.364 2365.3 160.114 2370.63 146.855C2375.96 133.596 2383.21 122.072 2392.38 112.283C2401.67 102.37 2412.45 94.5639 2424.72 88.8639C2437.11 83.1639 2450.31 80.3139 2464.31 80.3139C2472.61 80.3139 2480.73 81.3672 2488.66 83.4737C2496.71 85.5802 2504.33 88.678 2511.52 92.7671C2518.83 96.7323 2525.52 101.627 2531.59 107.451C2537.79 113.275 2543.12 119.966 2547.58 127.525ZM2672.29 287C2660.03 287 2648.5 284.708 2637.72 280.123C2626.94 275.414 2617.46 269.033 2609.29 260.978C2601.23 252.8 2594.85 243.321 2590.14 232.54C2585.56 221.76 2583.26 210.236 2583.26 197.969V138.863H2558.54V88.3063H2583.26V8.75443H2633.82V88.3063H2710.77V138.863H2633.82V197.969C2633.82 203.297 2634.81 208.316 2636.79 213.024C2638.78 217.609 2641.5 221.636 2644.97 225.106C2648.44 228.575 2652.53 231.363 2657.24 233.47C2661.95 235.452 2666.97 236.444 2672.29 236.444H2710.77V287H2672.29ZM2885.67 263.766C2881.58 267.484 2877.18 271.015 2872.48 274.361C2867.89 277.583 2863.06 280.433 2857.98 282.911C2852.9 285.265 2847.63 287.124 2842.18 288.487C2836.85 289.974 2831.4 290.717 2825.82 290.717C2813.56 290.717 2802.03 288.549 2791.25 284.212C2780.47 279.875 2770.99 273.741 2762.81 265.811C2754.76 257.757 2748.38 248.03 2743.67 236.63C2739.08 225.106 2736.79 212.219 2736.79 197.969V87.9345H2787.35V197.969C2787.35 204.66 2788.34 210.67 2790.32 215.998C2792.43 221.202 2795.22 225.601 2798.69 229.195C2802.16 232.788 2806.18 235.514 2810.77 237.373C2815.48 239.232 2820.49 240.161 2825.82 240.161C2831.03 240.161 2835.92 238.984 2840.51 236.63C2845.22 234.151 2849.3 230.93 2852.77 226.964C2856.24 222.999 2858.97 218.538 2860.95 213.582C2862.93 208.501 2863.93 203.297 2863.93 197.969V87.9345H2914.67V287H2902.4L2885.67 263.766ZM3004.26 287H2953.51V87.9345H2965.78L2982.51 111.54C2990.69 104.105 2999.98 98.4051 3010.39 94.4399C3020.8 90.3508 3031.58 88.3063 3042.73 88.3063H3087.53V138.863H3042.73C3037.4 138.863 3032.38 139.854 3027.68 141.836C3022.97 143.819 3018.88 146.545 3015.41 150.015C3011.94 153.484 3009.21 157.573 3007.23 162.282C3005.25 166.991 3004.26 172.009 3004.26 177.337V287ZM3186.59 238.302C3188.58 238.922 3190.56 239.356 3192.54 239.603C3194.52 239.727 3196.51 239.789 3198.49 239.789C3203.45 239.789 3208.22 239.108 3212.8 237.745C3217.39 236.382 3221.66 234.461 3225.63 231.983C3229.72 229.381 3233.31 226.283 3236.41 222.689C3239.63 218.972 3242.23 214.883 3244.21 210.422L3281.39 247.782C3276.68 254.473 3271.23 260.483 3265.03 265.811C3258.96 271.139 3252.33 275.662 3245.14 279.379C3238.08 283.097 3230.58 285.885 3222.65 287.743C3214.85 289.726 3206.79 290.717 3198.49 290.717C3184.49 290.717 3171.29 288.115 3158.9 282.911C3146.63 277.707 3135.85 270.458 3126.56 261.164C3117.39 251.871 3110.14 240.843 3104.81 228.08C3099.48 215.193 3096.82 201.067 3096.82 185.702C3096.82 169.965 3099.48 155.591 3104.81 142.58C3110.14 129.569 3117.39 118.479 3126.56 109.309C3135.85 100.14 3146.63 93.0149 3158.9 87.9345C3171.29 82.8541 3184.49 80.3139 3198.49 80.3139C3206.79 80.3139 3214.91 81.3052 3222.84 83.2878C3230.77 85.2704 3238.27 88.1204 3245.33 91.8378C3252.52 95.5552 3259.21 100.14 3265.4 105.592C3271.6 110.92 3277.05 116.93 3281.76 123.621L3186.59 238.302ZM3212.62 133.658C3210.26 132.791 3207.91 132.233 3205.55 131.985C3203.32 131.738 3200.97 131.614 3198.49 131.614C3191.55 131.614 3184.98 132.915 3178.79 135.517C3172.72 137.995 3167.39 141.589 3162.8 146.297C3158.34 151.006 3154.81 156.706 3152.21 163.397C3149.61 169.965 3148.3 177.399 3148.3 185.702C3148.3 187.56 3148.37 189.667 3148.49 192.021C3148.74 194.375 3149.05 196.792 3149.42 199.27C3149.92 201.624 3150.47 203.917 3151.09 206.147C3151.71 208.378 3152.52 210.36 3153.51 212.095L3212.62 133.658Z" fill="#ABFDC1"/>
<path d="M3531.38 287H3478.22V73.8085H3398.11V20.4642H3611.3V73.8085H3531.38V287ZM3682.12 238.302C3684.1 238.922 3686.09 239.356 3688.07 239.603C3690.05 239.727 3692.03 239.789 3694.02 239.789C3698.97 239.789 3703.74 239.108 3708.33 237.745C3712.91 236.382 3717.19 234.461 3721.15 231.983C3725.24 229.381 3728.84 226.283 3731.93 222.689C3735.15 218.972 3737.76 214.883 3739.74 210.422L3776.91 247.782C3772.2 254.473 3766.75 260.483 3760.56 265.811C3754.48 271.139 3747.86 275.662 3740.67 279.379C3733.61 283.097 3726.11 285.885 3718.18 287.743C3710.37 289.726 3702.32 290.717 3694.02 290.717C3680.01 290.717 3666.82 288.115 3654.43 282.911C3642.16 277.707 3631.38 270.458 3622.08 261.164C3612.91 251.871 3605.67 240.843 3600.34 228.08C3595.01 215.193 3592.35 201.067 3592.35 185.702C3592.35 169.965 3595.01 155.591 3600.34 142.58C3605.67 129.569 3612.91 118.479 3622.08 109.309C3631.38 100.14 3642.16 93.0149 3654.43 87.9345C3666.82 82.8541 3680.01 80.3139 3694.02 80.3139C3702.32 80.3139 3710.43 81.3052 3718.36 83.2878C3726.29 85.2704 3733.79 88.1204 3740.85 91.8378C3748.04 95.5552 3754.73 100.14 3760.93 105.592C3767.12 110.92 3772.58 116.93 3777.28 123.621L3682.12 238.302ZM3708.14 133.658C3705.79 132.791 3703.43 132.233 3701.08 131.985C3698.85 131.738 3696.49 131.614 3694.02 131.614C3687.08 131.614 3680.51 132.915 3674.31 135.517C3668.24 137.995 3662.91 141.589 3658.33 146.297C3653.87 151.006 3650.34 156.706 3647.73 163.397C3645.13 169.965 3643.83 177.399 3643.83 185.702C3643.83 187.56 3643.89 189.667 3644.02 192.021C3644.26 194.375 3644.57 196.792 3644.95 199.27C3645.44 201.624 3646 203.917 3646.62 206.147C3647.24 208.378 3648.04 210.36 3649.04 212.095L3708.14 133.658ZM4056.09 287H4005.53V160.609C4005.53 157.14 4004.85 153.856 4003.49 150.758C4002.25 147.66 4000.45 144.934 3998.1 142.58C3995.74 140.226 3993.02 138.429 3989.92 137.19C3986.82 135.827 3983.54 135.145 3980.07 135.145C3976.6 135.145 3973.31 135.827 3970.22 137.19C3967.24 138.429 3964.58 140.226 3962.22 142.58C3959.99 144.934 3958.2 147.66 3956.83 150.758C3955.6 153.856 3954.98 157.14 3954.98 160.609V287H3904.23V160.609C3904.23 157.14 3903.55 153.856 3902.19 150.758C3900.95 147.66 3899.15 144.934 3896.8 142.58C3894.44 140.226 3891.72 138.429 3888.62 137.19C3885.52 135.827 3882.24 135.145 3878.77 135.145C3875.3 135.145 3872.02 135.827 3868.92 137.19C3865.94 138.429 3863.28 140.226 3860.93 142.58C3858.7 144.934 3856.9 147.66 3855.54 150.758C3854.3 153.856 3853.68 157.14 3853.68 160.609V287H3802.93V87.9345H3815.2L3828.96 103.176C3836.02 97.228 3843.76 92.6432 3852.19 89.4215C3860.74 86.0758 3869.6 84.403 3878.77 84.403C3888.06 84.403 3897.11 86.1378 3905.91 89.6074C3914.83 93.0769 3922.63 99.0867 3929.33 107.637C3932.42 103.424 3935.95 99.8301 3939.92 96.8562C3943.89 93.8823 3948.04 91.466 3952.37 89.6074C3956.83 87.7487 3961.42 86.4476 3966.13 85.7041C3970.84 84.8367 3975.48 84.403 3980.07 84.403C3990.6 84.403 4000.45 86.3856 4009.62 90.3508C4018.91 94.316 4026.97 99.7682 4033.78 106.707C4040.72 113.522 4046.18 121.577 4050.14 130.87C4054.11 140.164 4056.09 150.077 4056.09 160.609V287ZM4144.38 362.834H4093.26V87.9345H4105.53L4125.79 111.912C4130.37 107.575 4135.39 103.486 4140.84 99.6443C4146.3 95.803 4151.93 92.5193 4157.76 89.7932C4163.71 86.9432 4169.84 84.7128 4176.16 83.1019C4182.48 81.4911 4188.86 80.6856 4195.3 80.6856C4209.31 80.6856 4222.44 83.2259 4234.71 88.3063C4247.1 93.2628 4257.88 100.326 4267.05 109.495C4276.34 118.665 4283.65 129.755 4288.98 142.766C4294.31 155.653 4296.97 169.965 4296.97 185.702C4296.97 202.058 4294.31 216.804 4288.98 229.938C4283.65 242.949 4276.34 254.039 4267.05 263.209C4257.88 272.254 4247.1 279.194 4234.71 284.026C4222.44 288.859 4209.31 291.275 4195.3 291.275C4190.84 291.275 4186.38 290.779 4181.92 289.788C4177.58 288.797 4173.25 287.496 4168.91 285.885C4164.7 284.15 4160.48 282.229 4156.27 280.123C4152.18 278.016 4148.22 275.848 4144.38 273.617V362.834ZM4246.05 185.702C4246.05 177.275 4244.68 169.717 4241.96 163.026C4239.35 156.334 4235.76 150.696 4231.18 146.111C4226.59 141.403 4221.2 137.809 4215.01 135.331C4208.81 132.853 4202.24 131.614 4195.3 131.614C4188.36 131.614 4181.8 132.853 4175.6 135.331C4169.53 137.809 4164.2 141.403 4159.62 146.111C4155.03 150.696 4151.38 156.334 4148.65 163.026C4146.05 169.717 4144.75 177.275 4144.75 185.702C4144.75 193.756 4146.05 201.129 4148.65 207.82C4151.38 214.511 4155.03 220.211 4159.62 224.92C4164.2 229.629 4169.53 233.284 4175.6 235.886C4181.8 238.488 4188.36 239.789 4195.3 239.789C4202.24 239.789 4208.81 238.488 4215.01 235.886C4221.2 233.284 4226.59 229.629 4231.18 224.92C4235.76 220.211 4239.35 214.511 4241.96 207.82C4244.68 201.129 4246.05 193.756 4246.05 185.702ZM4376.34 287H4325.23V8.75443H4376.34V287ZM4607.93 287H4595.67L4575.96 259.677C4571.13 264.014 4565.99 268.103 4560.54 271.945C4555.21 275.662 4549.57 278.946 4543.62 281.796C4537.67 284.522 4531.54 286.69 4525.22 288.301C4519.03 289.912 4512.71 290.717 4506.26 290.717C4492.26 290.717 4479.06 288.363 4466.67 283.654C4454.41 278.946 4443.62 272.13 4434.33 263.209C4425.16 254.163 4417.91 243.135 4412.58 230.124C4407.26 217.113 4404.59 202.306 4404.59 185.702C4404.59 170.212 4407.26 156.024 4412.58 143.138C4417.91 130.127 4425.16 118.975 4434.33 109.681C4443.62 100.388 4454.41 93.2008 4466.67 88.1204C4479.06 82.9161 4492.26 80.3139 4506.26 80.3139C4512.71 80.3139 4519.09 81.1193 4525.41 82.7302C4531.73 84.3411 4537.86 86.5715 4543.81 89.4215C4549.76 92.2715 4555.39 95.6171 4560.72 99.4584C4566.17 103.3 4571.25 107.451 4575.96 111.912L4595.67 88.3063H4607.93V287ZM4556.82 185.702C4556.82 178.762 4555.46 172.071 4552.73 165.628C4550.13 159.06 4546.53 153.298 4541.95 148.342C4537.36 143.261 4531.97 139.234 4525.78 136.26C4519.71 133.163 4513.2 131.614 4506.26 131.614C4499.32 131.614 4492.76 132.791 4486.56 135.145C4480.49 137.5 4475.16 140.969 4470.58 145.554C4466.11 150.139 4462.58 155.839 4459.98 162.654C4457.38 169.345 4456.08 177.028 4456.08 185.702C4456.08 194.375 4457.38 202.12 4459.98 208.935C4462.58 215.626 4466.11 221.264 4470.58 225.849C4475.16 230.434 4480.49 233.903 4486.56 236.258C4492.76 238.612 4499.32 239.789 4506.26 239.789C4513.2 239.789 4519.71 238.302 4525.78 235.328C4531.97 232.231 4537.36 228.204 4541.95 223.247C4546.53 218.167 4550.13 212.405 4552.73 205.961C4555.46 199.394 4556.82 192.641 4556.82 185.702ZM4746.59 287C4734.32 287 4722.8 284.708 4712.02 280.123C4701.24 275.414 4691.76 269.033 4683.58 260.978C4675.53 252.8 4669.15 243.321 4664.44 232.54C4659.85 221.76 4657.56 210.236 4657.56 197.969V138.863H4632.84V88.3063H4657.56V8.75443H4708.12V88.3063H4785.07V138.863H4708.12V197.969C4708.12 203.297 4709.11 208.316 4711.09 213.024C4713.07 217.609 4715.8 221.636 4719.27 225.106C4722.74 228.575 4726.83 231.363 4731.54 233.47C4736.24 235.452 4741.26 236.444 4746.59 236.444H4785.07V287H4746.59ZM4892.87 238.302C4894.85 238.922 4896.83 239.356 4898.82 239.603C4900.8 239.727 4902.78 239.789 4904.76 239.789C4909.72 239.789 4914.49 239.108 4919.08 237.745C4923.66 236.382 4927.94 234.461 4931.9 231.983C4935.99 229.381 4939.58 226.283 4942.68 222.689C4945.9 218.972 4948.51 214.883 4950.49 210.422L4987.66 247.782C4982.95 254.473 4977.5 260.483 4971.31 265.811C4965.23 271.139 4958.6 275.662 4951.42 279.379C4944.35 283.097 4936.86 285.885 4928.93 287.743C4921.12 289.726 4913.07 290.717 4904.76 290.717C4890.76 290.717 4877.57 288.115 4865.17 282.911C4852.91 277.707 4842.13 270.458 4832.83 261.164C4823.66 251.871 4816.42 240.843 4811.09 228.08C4805.76 215.193 4803.09 201.067 4803.09 185.702C4803.09 169.965 4805.76 155.591 4811.09 142.58C4816.42 129.569 4823.66 118.479 4832.83 109.309C4842.13 100.14 4852.91 93.0149 4865.17 87.9345C4877.57 82.8541 4890.76 80.3139 4904.76 80.3139C4913.07 80.3139 4921.18 81.3052 4929.11 83.2878C4937.04 85.2704 4944.54 88.1204 4951.6 91.8378C4958.79 95.5552 4965.48 100.14 4971.68 105.592C4977.87 110.92 4983.33 116.93 4988.03 123.621L4892.87 238.302ZM4918.89 133.658C4916.54 132.791 4914.18 132.233 4911.83 131.985C4909.6 131.738 4907.24 131.614 4904.76 131.614C4897.83 131.614 4891.26 132.915 4885.06 135.517C4878.99 137.995 4873.66 141.589 4869.08 146.297C4864.62 151.006 4861.09 156.706 4858.48 163.397C4855.88 169.965 4854.58 177.399 4854.58 185.702C4854.58 187.56 4854.64 189.667 4854.77 192.021C4855.01 194.375 4855.32 196.792 4855.7 199.27C4856.19 201.624 4856.75 203.917 4857.37 206.147C4857.99 208.378 4858.79 210.36 4859.78 212.095L4918.89 133.658Z" fill="#FFA9A6"/>
</svg>
